<mxfile host="app.diagrams.net" modified="2023-08-22T08:03:56.139Z" agent="Mozilla/5.0 (Macintosh; Intel Mac OS X 10.15; rv:109.0) Gecko/20100101 Firefox/116.0" version="21.6.8" etag="nP1cTYX8sGSXtI9LJhVE" type="github">
  <diagram name="第 1 页" id="9qalYlBnHVuoMHJrbcrD">
    <mxGraphModel>
      <root>
        <mxCell id="0" />
        <mxCell id="1" parent="0" />
      </root>
    </mxGraphModel>
  </diagram>
</mxfile>
